<svg width="237" height="120" viewBox="0 0 237 120" fill="none" xmlns="http://www.w3.org/2000/svg">
<mask id="mask0_13_269" style="mask-type:alpha" maskUnits="userSpaceOnUse" x="174" y="43" width="45" height="47">
<path d="M196.757 43.9479C200.001 43.9479 202.984 44.5254 205.706 45.6804C208.429 46.7776 210.775 48.3368 212.744 50.358C214.714 52.3793 216.249 54.7759 217.349 57.5478C218.45 60.3198 219 63.3227 219 66.5567C219 69.7906 218.45 72.7936 217.349 75.5655C216.249 78.3375 214.714 80.7341 212.744 82.7553C210.775 84.7765 208.429 86.3646 205.706 87.5196C202.984 88.6169 200.001 89.1655 196.757 89.1655C193.513 89.1655 190.53 88.6169 187.807 87.5196C185.085 86.3646 182.739 84.7765 180.77 82.7553C178.8 80.7341 177.265 78.3375 176.165 75.5655C175.064 72.7936 174.514 69.7906 174.514 66.5567C174.514 63.3227 175.064 60.3198 176.165 57.5478C177.265 54.7759 178.8 52.3793 180.77 50.358C182.739 48.3368 185.085 46.7776 187.807 45.6804C190.53 44.5254 193.513 43.9479 196.757 43.9479ZM196.757 80.2432C198.379 80.2432 199.943 79.9256 201.449 79.2904C202.955 78.6551 204.287 77.76 205.446 76.605C206.662 75.45 207.618 74.0352 208.313 72.3605C209.008 70.628 209.356 68.6934 209.356 66.5567C209.356 64.42 209.008 62.5142 208.313 60.8395C207.618 59.107 206.662 57.6633 205.446 56.5083C204.287 55.3533 202.955 54.4582 201.449 53.823C199.943 53.1878 198.379 52.8701 196.757 52.8701C195.135 52.8701 193.571 53.1878 192.065 53.823C190.559 54.4582 189.198 55.3533 187.981 56.5083C186.823 57.6633 185.896 59.107 185.201 60.8395C184.506 62.5142 184.158 64.42 184.158 66.5567C184.158 68.6934 184.506 70.628 185.201 72.3605C185.896 74.0352 186.823 75.45 187.981 76.605C189.198 77.76 190.559 78.6551 192.065 79.2904C193.571 79.9256 195.135 80.2432 196.757 80.2432Z" fill="white"/>
</mask>
<g mask="url(#mask0_13_269)">
<ellipse cx="207.131" cy="91.6524" rx="37.3915" ry="37.3915" fill="#413A70"/>
<ellipse cx="202.783" cy="82.9567" rx="37.3915" ry="37.3915" fill="#413A70"/>
<path opacity="0.08" d="M157.089 65.7828L161.409 77.0535H161.843C161.843 77.0535 167.739 45.7823 197.699 45.7823C200.943 45.7823 204.345 46.2732 207.067 47.4282C209.79 48.5254 212.136 50.0847 214.105 52.1059C214.557 52.5696 214.983 53.0514 215.383 53.5519C186.253 49.4783 174.948 63.1741 166.361 89.5273H156.717L146.843 65.7828H157.089Z" fill="#121114"/>
</g>
<path d="M148.644 45.3426H137.783L155.421 87.7882L160.113 75.3144L148.644 45.3426Z" fill="#FD8D00"/>
<path d="M155.785 64.0436L160.104 75.3144H160.539C160.539 75.3144 166.434 44.0432 196.395 44.0432C199.639 44.0432 203.041 44.5341 205.763 45.6891C208.485 46.7863 210.831 48.3455 212.801 50.3667C213.253 50.8305 213.678 51.3122 214.079 51.8127C184.949 47.7392 173.644 61.4349 165.057 87.7882H155.413L145.539 64.0436H155.785Z" fill="url(#paint0_linear_13_269)"/>
<path d="M19 31H28.6522V45.2609L28.1305 51.174H28.6522C29.8116 49.3189 31.5798 47.7247 33.9566 46.3914C36.3334 45.0001 39.174 44.3044 42.4784 44.3044C45.203 44.3044 47.7827 44.8841 50.2175 46.0435C52.7103 47.145 54.8842 48.7102 56.7393 50.7392C58.5944 52.7682 60.0726 55.174 61.1741 57.9566C62.2756 60.6813 62.8263 63.6958 62.8263 67.0002C62.8263 70.3045 62.2756 73.348 61.1741 76.1306C60.0726 78.8553 58.5944 81.2321 56.7393 83.2611C54.8842 85.2901 52.7103 86.8843 50.2175 88.0437C47.7827 89.1452 45.203 89.6959 42.4784 89.6959C39.174 89.6959 36.3334 89.0292 33.9566 87.6959C31.5798 86.3046 29.8116 84.6814 28.6522 82.8263H28.1305V88.3046H19V31ZM40.6523 80.7393C42.2755 80.7393 43.8407 80.4205 45.3479 79.7828C46.9132 79.1451 48.2465 78.2466 49.348 77.0872C50.5074 75.8698 51.4349 74.4205 52.1306 72.7393C52.8262 71.0581 53.1741 69.1451 53.1741 67.0002C53.1741 64.8552 52.8262 62.9422 52.1306 61.261C51.4349 59.5798 50.5074 58.1595 49.348 57.0001C48.2465 55.7827 46.9132 54.8552 45.3479 54.2175C43.8407 53.5798 42.2755 53.261 40.6523 53.261C38.9711 53.261 37.3769 53.5798 35.8696 54.2175C34.3624 54.8552 33.029 55.7537 31.8696 56.9132C30.7682 58.0726 29.8696 59.5219 29.174 61.261C28.4783 62.9422 28.1305 64.8552 28.1305 67.0002C28.1305 69.1451 28.4783 71.0871 29.174 72.8263C29.8696 74.5074 30.7682 75.9277 31.8696 77.0872C33.029 78.2466 34.3624 79.1451 35.8696 79.7828C37.3769 80.4205 38.9711 80.7393 40.6523 80.7393Z" fill="#413A70"/>
<path d="M69.272 45.6957H78.4024V52.1305H78.9242C79.4459 51.0291 80.1416 50.0146 81.0111 49.087C81.9387 48.1015 82.9532 47.2899 84.0546 46.6522C85.2141 45.9566 86.4025 45.4348 87.6199 45.087C88.8952 44.6812 90.1126 44.4783 91.2721 44.4783C92.6634 44.4783 93.8518 44.5943 94.8373 44.8261C95.8228 45.058 96.7214 45.3769 97.533 45.7827L94.7503 54.7392C94.1127 54.4494 93.388 54.2465 92.5764 54.1305C91.8228 53.9566 90.8953 53.8697 89.7938 53.8697C88.2286 53.8697 86.7793 54.1885 85.446 54.8262C84.1706 55.4639 83.0401 56.3334 82.0546 57.4349C81.0691 58.5363 80.2865 59.8407 79.7068 61.348C79.185 62.8552 78.9242 64.4494 78.9242 66.1306V88.3046H69.272V45.6957Z" fill="#413A70"/>
<path d="M127.64 83.0872H127.119C125.843 84.7683 124.191 86.3046 122.162 87.6959C120.133 89.0292 117.553 89.6959 114.423 89.6959C112.162 89.6959 110.046 89.3191 108.075 88.5655C106.104 87.8698 104.394 86.8843 102.945 85.6089C101.495 84.2756 100.336 82.7394 99.4664 81.0002C98.6548 79.2031 98.5968 77.2321 98.5968 75.0871C98.5968 72.8263 98.6838 70.7973 99.5533 69.0002C100.481 67.2031 101.727 65.6958 103.292 64.4784C104.916 63.261 106.829 62.3335 109.032 61.6958C111.235 61.0001 113.611 60.6523 116.162 60.6523C119.003 60.6523 121.38 60.9422 123.293 61.5219C125.206 62.0436 126.655 62.5364 127.64 63.0001V61.348C127.64 60.0726 127.351 58.8842 126.771 57.7827C126.249 56.6813 125.495 55.7537 124.51 55.0001C123.582 54.1885 122.51 53.5798 121.293 53.174C120.075 52.7102 118.8 52.4783 117.466 52.4783C115.322 52.4783 113.379 52.9131 111.64 53.7827C109.959 54.5943 108.452 55.9276 107.119 57.7827L99.4664 52.7392C101.495 49.9566 104.017 47.8696 107.032 46.4783C110.046 45.029 113.466 44.3044 117.293 44.3044C123.611 44.3044 128.481 45.8696 131.901 49.0001C135.38 52.1305 137.119 56.5943 137.119 62.3914V88.3046H127.64V83.0872ZM127.64 70.5654C126.365 69.8118 124.945 69.2031 123.38 68.7393C121.814 68.2755 120.017 68.0436 117.988 68.0436C114.974 68.0436 112.568 68.7393 110.771 70.1306C108.974 71.5219 108.075 73.2031 108.075 75.1741C108.075 76.2176 108.307 77.1451 108.771 77.9567C109.235 78.7103 109.814 79.377 110.51 79.9567C111.264 80.5364 112.104 80.9712 113.032 81.2611C114.017 81.5509 115.003 81.6959 115.988 81.6959C117.553 81.6959 119.032 81.406 120.423 80.8263C121.872 80.1886 123.119 79.377 124.162 78.3915C125.206 77.348 126.046 76.1596 126.684 74.8263C127.322 73.4929 127.64 72.0726 127.64 70.5654Z" fill="#413A70"/>
<defs>
<linearGradient id="paint0_linear_13_269" x1="140.818" y1="65.7828" x2="214.297" y2="65.7828" gradientUnits="userSpaceOnUse">
<stop stop-color="#FD8D00"/>
<stop offset="1" stop-color="#FDA900"/>
</linearGradient>
</defs>
</svg>
