<svg width="28" height="28" viewBox="0 0 28 28" fill="none" xmlns="http://www.w3.org/2000/svg">
<path fill-rule="evenodd" clip-rule="evenodd" d="M0.916992 14.0018C0.916992 7.71646 0.916992 4.57379 2.86899 2.62046C4.82366 0.668457 7.96499 0.668457 14.2503 0.668457C20.5357 0.668457 23.6783 0.668457 25.6303 2.62046C27.5837 4.57512 27.5837 7.71646 27.5837 14.0018C27.5837 20.2871 27.5837 23.4298 25.6303 25.3818C23.6797 27.3351 20.5357 27.3351 14.2503 27.3351C7.96499 27.3351 4.82233 27.3351 2.86899 25.3818C0.916992 23.4311 0.916992 20.2871 0.916992 14.0018ZM20.917 15.6685C21.1205 15.6685 21.3192 15.7307 21.4864 15.8466C21.6537 15.9626 21.7816 16.1268 21.853 16.3174C21.9245 16.508 21.9361 16.7158 21.8863 16.9132C21.8365 17.1105 21.7276 17.2879 21.5743 17.4218L16.9917 21.4218C16.7919 21.5963 16.5309 21.6843 16.2662 21.6664C16.0016 21.6485 15.7548 21.5263 15.5803 21.3265C15.4058 21.1267 15.3178 20.8657 15.3357 20.601C15.3536 20.3364 15.4759 20.0896 15.6757 19.9151L18.2503 17.6685H7.58366C7.31844 17.6685 7.06409 17.5631 6.87655 17.3756C6.68902 17.188 6.58366 16.9337 6.58366 16.6685C6.58366 16.4032 6.68902 16.1489 6.87655 15.9613C7.06409 15.7738 7.31844 15.6685 7.58366 15.6685H20.917ZM12.921 6.67779C13.0953 6.87761 13.1831 7.13846 13.1651 7.403C13.1471 7.66754 13.0247 7.91409 12.825 8.08846L10.2503 10.3351H20.917C21.1822 10.3351 21.4366 10.4405 21.6241 10.628C21.8116 10.8156 21.917 11.0699 21.917 11.3351C21.917 11.6003 21.8116 11.8547 21.6241 12.0422C21.4366 12.2298 21.1822 12.3351 20.917 12.3351H7.58366C7.38013 12.3351 7.18147 12.2729 7.01421 12.1569C6.84695 12.041 6.71905 11.8767 6.64761 11.6862C6.57616 11.4956 6.56456 11.2878 6.61437 11.0904C6.66417 10.8931 6.773 10.7156 6.92633 10.5818L11.509 6.58179C11.608 6.49529 11.723 6.42915 11.8476 6.38715C11.9721 6.34516 12.1038 6.32813 12.2349 6.33705C12.366 6.34597 12.4941 6.38065 12.6119 6.43912C12.7296 6.49758 12.8346 6.57869 12.921 6.67779Z" fill="#413A70"/>
</svg>
