<svg width="33" height="32" viewBox="0 0 33 32" fill="none" xmlns="http://www.w3.org/2000/svg">
<path fill-rule="evenodd" clip-rule="evenodd" d="M14.3125 -3.99817C12.572 -3.99817 10.9028 -3.35022 9.67211 -2.19688C8.4414 -1.04353 7.75 0.52075 7.75 2.15183V30.8518C7.75 32.4829 8.4414 34.0472 9.67211 35.2005C10.9028 36.3539 12.572 37.0018 14.3125 37.0018H27.4375C29.178 37.0018 30.8472 36.3539 32.0779 35.2005C33.3086 34.0472 34 32.4829 34 30.8518V2.15183C34 0.52075 33.3086 -1.04353 32.0779 -2.19688C30.8472 -3.35022 29.178 -3.99817 27.4375 -3.99817H14.3125ZM17.1409 8.90248C17.5512 8.51817 18.1075 8.30227 18.6875 8.30227C19.2675 8.30227 19.8238 8.51817 20.2341 8.90248L26.7966 15.0525C27.2067 15.4369 27.437 15.9582 27.437 16.5018C27.437 17.0454 27.2067 17.5667 26.7966 17.9512L20.2341 24.1012C19.8215 24.4746 19.2689 24.6812 18.6954 24.6766C18.1218 24.6719 17.5732 24.4563 17.1676 24.0762C16.762 23.6961 16.5319 23.182 16.527 22.6445C16.522 22.1069 16.7425 21.5891 17.1409 21.2025L19.9694 18.5518H1.1875C0.607339 18.5518 0.0509402 18.3358 -0.359296 17.9514C-0.769531 17.5669 -1 17.0455 -1 16.5018C-1 15.9581 -0.769531 15.4367 -0.359296 15.0523C0.0509402 14.6678 0.607339 14.4518 1.1875 14.4518H19.9694L17.1409 11.8012C16.7308 11.4167 16.5005 10.8954 16.5005 10.3518C16.5005 9.80824 16.7308 9.28691 17.1409 8.90248Z" fill="#413A70"/>
</svg>
