<svg width="25" height="30" viewBox="0 0 25 30" fill="none" xmlns="http://www.w3.org/2000/svg">
<path d="M12.75 0.335205L0.75 5.66854V13.6685C0.75 21.0685 5.87 27.9885 12.75 29.6685C19.63 27.9885 24.75 21.0685 24.75 13.6685V5.66854L12.75 0.335205ZM12.75 8.33521C14.6167 8.33521 16.4833 9.80187 16.4833 11.6685V13.6685C17.2833 13.6685 18.0833 14.4685 18.0833 15.4019V20.0685C18.0833 20.8685 17.2833 21.6685 16.35 21.6685H9.01667C8.21667 21.6685 7.41667 20.8685 7.41667 19.9352V15.2685C7.41667 14.4685 8.21667 13.6685 9.01667 13.6685V11.6685C9.01667 9.80187 10.8833 8.33521 12.75 8.33521ZM12.75 9.93521C11.6833 9.93521 10.75 10.6019 10.75 11.6685V13.6685H14.75V11.6685C14.75 10.6019 13.8167 9.93521 12.75 9.93521Z" fill="#413A70"/>
</svg>
