<svg width="33" height="32" viewBox="0 0 33 32" fill="none" xmlns="http://www.w3.org/2000/svg">
<g clip-path="url(#clip0_22_762)">
<path d="M11.6786 18.4452L10.8732 19.2269C10.7594 19.3374 10.6953 19.4891 10.6953 19.6476V19.9812C10.6953 20.305 10.9579 20.5676 11.2818 20.5676H16.0913C16.4156 20.5676 16.6779 20.305 16.6779 19.9812V19.5494C16.6779 19.2256 16.4156 18.9629 16.0913 18.9629H13.4339L13.5071 18.8956C15.2439 17.2223 16.4732 15.9053 16.4732 14.1904C16.4732 12.8193 15.5821 11.4358 13.5906 11.4358C12.7213 11.4358 11.8699 11.7148 11.1931 12.2211C10.9733 12.386 10.897 12.6815 11.0102 12.9321L11.1581 13.2592C11.2299 13.4183 11.3685 13.5371 11.5371 13.5834C11.7046 13.6297 11.8854 13.5984 12.0284 13.4986C12.4636 13.1947 12.9115 13.0405 13.3603 13.0405C14.2337 13.0405 14.6764 13.4747 14.6764 14.3252C14.6648 15.4778 13.7087 16.5124 11.6786 18.4452Z" fill="#413A70"/>
<path d="M20.4454 11.5787C20.4298 11.5773 20.414 11.5767 20.3984 11.5767H20.2193C20.0275 11.5767 19.8481 11.6703 19.7385 11.8272L16.1466 16.9674C16.0778 17.066 16.041 17.1833 16.041 17.3034V17.7154C16.041 18.0393 16.3034 18.3019 16.6273 18.3019H19.9069V19.9813C19.9069 20.3051 20.1693 20.5677 20.4931 20.5677H21.0531C21.3768 20.5677 21.6397 20.3051 21.6397 19.9813V18.3019H22.2179C22.5417 18.3019 22.8044 18.0393 22.8044 17.7154V17.3346C22.8044 17.011 22.5417 16.7483 22.2179 16.7483H21.6397V12.1631C21.6397 11.8395 21.3768 11.5768 21.0531 11.5768H20.4931C20.4771 11.5768 20.4611 11.5774 20.4454 11.5787ZM19.9069 16.7483H18.136C18.5859 16.095 19.3551 14.9739 19.9069 14.1454V16.7483Z" fill="#413A70"/>
<path d="M16.7719 29.4652C9.86985 29.4652 4.25452 23.8499 4.25452 16.9478C4.25452 10.4122 9.28977 5.03139 15.6843 4.4782V6.47353C15.6843 6.61528 15.7626 6.74556 15.8876 6.81212C15.9442 6.84236 16.0062 6.85717 16.068 6.85717C16.1428 6.85717 16.2176 6.83525 16.2819 6.79193L20.8125 3.74795C20.9187 3.67672 20.9823 3.5573 20.9823 3.42945C20.9823 3.3017 20.9187 3.18218 20.8125 3.11095L16.2819 0.0669731C16.1643 -0.0120688 16.0126 -0.0199832 15.8875 0.0468828C15.7625 0.113546 15.6842 0.243828 15.6842 0.385474V1.93323C7.88933 2.49251 1.71777 9.01261 1.71777 16.9477C1.71777 25.2486 8.47114 32.0017 16.7718 32.0017C20.6149 32.0017 24.2735 30.5537 27.0738 27.9245L25.3376 26.0752C23.0094 28.2613 19.9674 29.4652 16.7719 29.4652Z" fill="#413A70"/>
<path d="M29.6222 9.10215C29.1036 8.254 28.4972 7.45313 27.8203 6.72217L25.959 8.44557C26.5223 9.05385 27.0266 9.72018 27.4582 10.4257L29.6222 9.10215Z" fill="#413A70"/>
<path d="M29.1755 15.2479L31.6891 14.9066C31.5549 13.9184 31.3213 12.9409 30.9944 12.0015L28.5986 12.8346C28.87 13.6148 29.064 14.4267 29.1755 15.2479Z" fill="#413A70"/>
<path d="M25.4057 4.61436C24.5894 4.04179 23.7134 3.54937 22.802 3.15051L21.7852 5.47439C22.5425 5.80587 23.2706 6.21519 23.9491 6.69106L25.4057 4.61436Z" fill="#413A70"/>
<path d="M26.4414 24.8968L28.4 26.5088C29.0336 25.739 29.5922 24.9039 30.0603 24.0268L27.8225 22.8324C27.4332 23.5617 26.9686 24.2564 26.4414 24.8968Z" fill="#413A70"/>
<path d="M29.2519 17.9159C29.1888 18.7436 29.0428 19.5661 28.8184 20.3605L31.2593 21.0507C31.5298 20.0943 31.7054 19.1046 31.7815 18.1092L29.2519 17.9159Z" fill="#413A70"/>
</g>
<defs>
<clipPath id="clip0_22_762">
<rect width="32" height="32" fill="white" transform="translate(0.75 0.00183105)"/>
</clipPath>
</defs>
</svg>
