<?xml version="1.0"?>
<svg width="509" height="509" xmlns="http://www.w3.org/2000/svg" xmlns:svg="http://www.w3.org/2000/svg" clip-rule="evenodd" fill-rule="evenodd">
 <g class="layer">
  <title>Layer 1</title>
  <g fill-rule="nonzero" id="svg_1">
   <path d="m509,254.5c0,-140.56 -113.94,-254.5 -254.5,-254.5s-254.5,113.94 -254.5,254.5c0,119.36 82.17,219.5 193.02,247.01l0,-169.24l-52.48,0l0,-77.77l52.48,0l0,-33.51c0,-86.63 39.2,-126.78 124.24,-126.78c16.13,0 43.95,3.17 55.33,6.33l0,70.5c-6.01,-0.63 -16.44,-0.95 -29.4,-0.95c-41.73,0 -57.86,15.81 -57.86,56.91l0,27.5l83.13,0l-14.28,77.77l-68.85,0l0,174.87c126.02,-15.22 223.67,-122.52 223.67,-252.64z" fill="#413a70" id="svg_2"/>
   <path d="m354.18,332.27l14.28,-77.77l-83.13,0l0,-27.5c0,-41.1 16.13,-56.91 57.86,-56.91c12.96,0 23.39,0.32 29.4,0.95l0,-70.5c-11.38,-3.16 -39.2,-6.33 -55.33,-6.33c-85.04,0 -124.24,40.16 -124.24,126.78l0,33.51l-52.48,0l0,77.77l52.48,0l0,169.24c19.69,4.88 40.28,7.49 61.48,7.49c10.44,0 20.72,-0.64 30.83,-1.86l0,-174.87l68.85,0z" fill="#000000" fill-opacity="0" id="svg_3"/>
  </g>
 </g>
</svg>